<svg width="2064" height="837" xmlns="http://www.w3.org/2000/svg">
 <defs>
  <clipPath id="clipPath16" clipPathUnits="userSpaceOnUse">
   <path id="path14" d="m-361.837135,1180.543563l2343,0l0,-1000l-2343,0l0,1000z"/>
  </clipPath>
  <clipPath id="clipPath32" clipPathUnits="userSpaceOnUse">
   <path id="path30" d="m598.516865,995.062563l148.096,0l0,-631.768l-148.096,0l0,631.768z"/>
  </clipPath>
 </defs>
 <g>
  <title>background</title>
  <rect fill="none" id="canvas_background" height="839" width="2066" y="-1" x="-1"/>
 </g>
 <g>
  <title>Layer 1</title>
  <g transform="matrix(1.3333333,0,0,-1.3333333,0,1333.3333) " id="g8">
   <g id="g10">
    <g clip-path="url(#clipPath16)" id="g12">
     <g id="g18">
      <path fill="#4c83bf" fill-rule="nonzero" id="path20" d="m865.313256,784.673446l-58.84,0l0,-412.13l-130.53,0l0,1.07c-5.62,-0.03 -9.71,-0.07 -9.71,-0.07l-505.62,0c-3.09,0 -6.141,0.1 -9.191,0.28c-80,4.75 -143.409,71.121 -143.409,152.33c0,84.28 68.32,152.6 152.6,152.6c2.53,0 5.04,-0.059 7.54,-0.19c26.92,105.8 122.83,184.05 237,184.05c17.93,0 35.399,-1.94 52.229,-5.6c55.521,78.38 146.92,129.53 250.281,129.53c9.589,0 19.07,-0.44 28.429,-1.3l0.601,-0.06l0.229,0.36l0.941,-1.47l127.45,-199.4z"/>
     </g>
     <g id="g22">
      <path fill="#4c83bf" fill-rule="nonzero" id="path24" d="m161.065148,373.29457l-9.189,0l0,0.276c3.043,-0.18 6.097,-0.276 9.189,-0.276"/>
     </g>
     <g id="g26">
      <g id="g28"/>
      <g id="g40">
       <g id="g38" opacity="0.960007" clip-path="url(#clipPath32)">
        <g id="g36">
         <path fill="none" stroke="#ffffff" stroke-width="20" stroke-linecap="round" stroke-linejoin="round" stroke-miterlimit="10" id="path34" d="m675.938256,373.29457l0,411.627l-67.421,0l128.094,200.141"/>
        </g>
       </g>
      </g>
     </g>
     <g id="g42">
      <path fill="#4c83bf" fill-rule="nonzero" id="path44" d="m943.832787,608.09825l0,-23.486l-113.123,0l0,150.832l110.107,0l0,-23.487l-82.095,0l0,-39.216l72.83,0l0,-23.055l-72.83,0l0,-41.588l85.111,0z"/>
     </g>
     <g id="g46">
      <path fill="#4c83bf" fill-rule="nonzero" id="path48" d="m1044.351342,584.611953l-29.52,39.862l-29.736,-39.862l-29.734,0l44.818,58.394l-42.88,56.669l29.951,0l28.228,-37.708l28.227,37.708l29.088,0l-43.094,-56.238l45.034,-58.825l-30.382,0z"/>
     </g>
     <g id="g50">
      <path fill="#4c83bf" fill-rule="nonzero" id="path52" d="m1144.697045,607.344375c5.242,3.088 8.942,7.505 11.098,13.252l0,13.359l-27.797,0c-15.514,0 -23.272,-5.1 -23.272,-15.298c0,-4.885 1.94,-8.764 5.819,-11.635c3.879,-2.875 9.264,-4.31 16.16,-4.31c6.751,0 12.747,1.542 17.992,4.632m24.564,81.45c8.976,-8.118 13.467,-20.363 13.467,-36.738l0,-67.444l-25.426,0l0,14.005c-3.306,-5.029 -8.009,-8.871 -14.113,-11.527c-6.107,-2.656 -13.468,-3.986 -22.087,-3.986c-8.618,0 -16.16,1.474 -22.625,4.417c-6.464,2.942 -11.456,7.036 -14.975,12.282c-3.522,5.241 -5.279,11.168 -5.279,17.776c0,10.343 3.842,18.639 11.528,24.887c7.683,6.249 19.787,9.374 36.307,9.374l29.737,0l0,1.724c0,8.044 -2.409,14.22 -7.219,18.531c-4.815,4.309 -11.959,6.464 -21.44,6.464c-6.463,0 -12.82,-1.007 -19.069,-3.017c-6.249,-2.013 -11.528,-4.814 -15.838,-8.403l-10.557,19.607c6.032,4.596 13.284,8.115 21.761,10.559c8.475,2.441 17.454,3.663 26.935,3.663c16.949,0 29.914,-4.061 38.893,-12.174"/>
     </g>
     <g id="g54">
      <path fill="#4c83bf" fill-rule="nonzero" id="path56" d="m1390.185326,688.362868c8.475,-8.403 12.713,-21.009 12.713,-37.815l0,-65.936l-26.934,0l0,62.487c0,10.054 -2.228,17.633 -6.679,22.733c-4.454,5.097 -10.848,7.65 -19.178,7.65c-9.05,0 -16.305,-2.983 -21.763,-8.942c-5.46,-5.963 -8.187,-14.474 -8.187,-25.534l0,-58.394l-26.935,0l0,62.487c0,10.054 -2.228,17.633 -6.68,22.733c-4.454,5.097 -10.848,7.65 -19.176,7.65c-9.196,0 -16.485,-2.946 -21.871,-8.835c-5.387,-5.891 -8.081,-14.436 -8.081,-25.641l0,-58.394l-26.934,0l0,115.064l25.642,0l0,-14.653c4.309,5.172 9.696,9.121 16.161,11.851c6.464,2.727 13.644,4.094 21.547,4.094c8.619,0 16.268,-1.616 22.948,-4.848c6.678,-3.232 11.959,-8.009 15.837,-14.329c4.74,6.033 10.844,10.737 18.315,14.114c7.467,3.373 15.73,5.063 24.779,5.063c14.508,0 25.998,-4.202 34.476,-12.605"/>
     </g>
     <g id="g58">
      <path fill="#4c83bf" fill-rule="nonzero" id="path60" d="m865.95681,385.563064c-12.282,6.68 -21.907,15.908 -28.873,27.688c-6.97,11.777 -10.451,25.066 -10.451,39.863c0,14.794 3.517,28.083 10.558,39.863c7.037,11.776 16.699,21.008 28.981,27.689c12.283,6.678 26.036,10.019 41.264,10.019c12.352,0 23.627,-2.155 33.83,-6.465c10.198,-4.309 18.816,-10.558 25.856,-18.747l-18.1,-17.021c-10.919,11.777 -24.348,17.668 -40.294,17.668c-10.342,0 -19.607,-2.262 -27.795,-6.786c-8.188,-4.526 -14.582,-10.812 -19.178,-18.855c-4.599,-8.047 -6.895,-17.167 -6.895,-27.365c0,-10.201 2.296,-19.322 6.895,-27.365c4.596,-8.047 10.99,-14.33 19.178,-18.855c8.188,-4.524 17.453,-6.787 27.795,-6.787c15.946,0 29.375,5.96 40.294,17.885l18.1,-17.239c-7.04,-8.187 -15.696,-14.436 -25.965,-18.746c-10.271,-4.309 -21.584,-6.464 -33.937,-6.464c-15.228,0 -28.982,3.34 -41.263,10.02"/>
     </g>
     <path fill="#4c83bf" fill-rule="nonzero" id="path62" d="m983.904865,537.579563l26.934,0l0,-159.882l-26.934,0l0,159.882z"/>
     <g id="g64">
      <path fill="#4c83bf" fill-rule="nonzero" id="path66" d="m1117.733178,409.156859c6.464,6.605 9.696,15.299 9.696,26.073c0,10.774 -3.232,19.463 -9.696,26.072c-6.465,6.606 -14.652,9.912 -24.564,9.912c-9.912,0 -18.067,-3.306 -24.457,-9.912c-6.393,-6.609 -9.588,-15.298 -9.588,-26.072c0,-10.774 3.195,-19.468 9.588,-26.073c6.39,-6.609 14.545,-9.912 24.457,-9.912c9.912,0 18.099,3.303 24.564,9.912m-56.023,-25.426c-9.34,5.027 -16.628,12.03 -21.871,21.009c-5.246,8.977 -7.865,19.14 -7.865,30.49c0,11.346 2.619,21.473 7.865,30.381c5.243,8.905 12.531,15.872 21.871,20.901c9.335,5.027 19.823,7.541 31.459,7.541c11.777,0 22.335,-2.514 31.674,-7.541c9.336,-5.029 16.625,-11.996 21.871,-20.901c5.243,-8.908 7.865,-19.035 7.865,-30.381c0,-11.35 -2.622,-21.513 -7.865,-30.49c-5.246,-8.979 -12.535,-15.982 -21.871,-21.009c-9.339,-5.03 -19.897,-7.541 -31.674,-7.541c-11.636,0 -22.124,2.511 -31.459,7.541"/>
     </g>
     <g id="g68">
      <path fill="#4c83bf" fill-rule="nonzero" id="path70" d="m1286.017357,492.761367l0,-115.063l-25.642,0l0,14.652c-4.309,-5.172 -9.697,-9.157 -16.161,-11.959c-6.464,-2.801 -13.433,-4.201 -20.9,-4.201c-15.373,0 -27.474,4.271 -36.308,12.82c-8.835,8.545 -13.252,21.225 -13.252,38.031l0,65.72l26.935,0l0,-62.057c0,-10.342 2.333,-18.066 7.003,-23.163c4.666,-5.101 11.312,-7.65 19.931,-7.65c9.622,0 17.271,2.98 22.948,8.943c5.673,5.958 8.511,14.544 8.511,25.749l0,58.178l26.935,0z"/>
     </g>
     <g id="g72">
      <path fill="#4c83bf" fill-rule="nonzero" id="path74" d="m1385.760521,403.662658c5.171,2.942 9.265,7.144 12.281,12.604c3.018,5.458 4.526,11.779 4.526,18.963c0,7.181 -1.508,13.501 -4.526,18.961c-3.016,5.458 -7.11,9.66 -12.281,12.606c-5.172,2.942 -10.989,4.417 -17.453,4.417c-6.464,0 -12.283,-1.475 -17.454,-4.417c-5.171,-2.946 -9.266,-7.148 -12.282,-12.606c-3.016,-5.46 -4.525,-11.78 -4.525,-18.961c0,-7.184 1.509,-13.505 4.525,-18.963c3.016,-5.46 7.111,-9.662 12.282,-12.604c5.171,-2.946 10.99,-4.418 17.454,-4.418c6.464,0 12.281,1.472 17.453,4.418m43.311,133.917l0,-159.882l-25.858,0l0,14.868c-4.454,-5.462 -9.949,-9.555 -16.483,-12.282c-6.539,-2.727 -13.757,-4.094 -21.656,-4.094c-11.063,0 -21.008,2.441 -29.843,7.326c-8.834,4.881 -15.766,11.814 -20.793,20.793c-5.031,8.976 -7.542,19.286 -7.542,30.921c0,11.635 2.511,21.905 7.542,30.813c5.027,8.905 11.959,15.801 20.793,20.685c8.835,4.882 18.78,7.326 29.843,7.326c7.612,0 14.579,-1.292 20.901,-3.878c6.32,-2.586 11.706,-6.464 16.161,-11.635l0,59.039l26.935,0z"/>
     </g>
     <g id="g76">
      <path fill="#4c83bf" fill-rule="nonzero" id="path78" d="m1468.652123,379.852157c-8.908,2.441 -16.019,5.529 -21.332,9.266l10.344,20.47c5.171,-3.448 11.383,-6.215 18.637,-8.296c7.252,-2.084 14.401,-3.124 21.44,-3.124c16.088,0 24.134,4.236 24.134,12.713c0,4.02 -2.047,6.821 -6.141,8.403c-4.094,1.579 -10.666,3.088 -19.716,4.525c-9.481,1.435 -17.204,3.088 -23.164,4.956c-5.963,1.865 -11.134,5.134 -15.514,9.805c-4.383,4.666 -6.572,11.167 -6.572,19.5c0,10.915 4.559,19.641 13.683,26.18c9.121,6.535 21.44,9.803 36.953,9.803c7.898,0 15.801,-0.897 23.703,-2.692c7.899,-1.798 14.362,-4.202 19.393,-7.219l-10.344,-20.47c-9.77,5.743 -20.759,8.619 -32.967,8.619c-7.902,0 -13.897,-1.185 -17.992,-3.555c-4.094,-2.37 -6.141,-5.495 -6.141,-9.373c0,-4.31 2.188,-7.364 6.572,-9.158c4.38,-1.798 11.169,-3.485 20.362,-5.064c9.192,-1.437 16.733,-3.091 22.625,-4.956c5.889,-1.868 10.953,-5.029 15.191,-9.48c4.236,-4.455 6.357,-10.775 6.357,-18.962c0,-10.774 -4.67,-19.393 -14.007,-25.857c-9.339,-6.465 -22.052,-9.696 -38.138,-9.696c-9.34,0 -18.461,1.222 -27.366,3.662"/>
     </g>
    </g>
   </g>
  </g>
 </g>
</svg>